<mxfile host="app.diagrams.net" modified="2022-04-24T04:34:15.356Z" agent="5.0 (Windows)" etag="5e7YJIsm4y6sn3IuObL8" version="17.4.6" type="github">
  <diagram name="Page-1" id="90a13364-a465-7bf4-72fc-28e22215d7a0">
    <mxGraphModel dx="1292" dy="710" grid="1" gridSize="10" guides="1" tooltips="1" connect="1" arrows="1" fold="1" page="1" pageScale="1.5" pageWidth="1169" pageHeight="826" background="none" math="0" shadow="0">
      <root>
        <mxCell id="0" style=";html=1;" />
        <mxCell id="1" style=";html=1;" parent="0" />
        <mxCell id="LvgNUa0SAJGG8aNR1_Jv-43" style="edgeStyle=orthogonalEdgeStyle;rounded=0;orthogonalLoop=1;jettySize=auto;html=1;exitX=0.5;exitY=1;exitDx=0;exitDy=0;entryX=0.5;entryY=0;entryDx=0;entryDy=0;endArrow=none;endFill=0;" edge="1" parent="1" source="LvgNUa0SAJGG8aNR1_Jv-1" target="LvgNUa0SAJGG8aNR1_Jv-37">
          <mxGeometry relative="1" as="geometry" />
        </mxCell>
        <mxCell id="LvgNUa0SAJGG8aNR1_Jv-51" style="edgeStyle=orthogonalEdgeStyle;rounded=0;orthogonalLoop=1;jettySize=auto;html=1;exitX=0;exitY=0.5;exitDx=0;exitDy=0;endArrow=none;endFill=0;" edge="1" parent="1" source="LvgNUa0SAJGG8aNR1_Jv-1">
          <mxGeometry relative="1" as="geometry">
            <mxPoint x="280" y="510" as="targetPoint" />
          </mxGeometry>
        </mxCell>
        <mxCell id="LvgNUa0SAJGG8aNR1_Jv-1" value="Program Counter" style="rounded=0;whiteSpace=wrap;html=1;" vertex="1" parent="1">
          <mxGeometry x="360" y="480" width="120" height="60" as="geometry" />
        </mxCell>
        <mxCell id="LvgNUa0SAJGG8aNR1_Jv-28" style="edgeStyle=orthogonalEdgeStyle;rounded=0;orthogonalLoop=1;jettySize=auto;html=1;exitX=0.5;exitY=1;exitDx=0;exitDy=0;entryX=0.75;entryY=0;entryDx=0;entryDy=0;endArrow=none;endFill=0;" edge="1" parent="1" source="LvgNUa0SAJGG8aNR1_Jv-2" target="LvgNUa0SAJGG8aNR1_Jv-21">
          <mxGeometry relative="1" as="geometry">
            <Array as="points">
              <mxPoint x="950" y="540" />
              <mxPoint x="1010" y="540" />
            </Array>
          </mxGeometry>
        </mxCell>
        <mxCell id="LvgNUa0SAJGG8aNR1_Jv-87" style="edgeStyle=orthogonalEdgeStyle;rounded=0;orthogonalLoop=1;jettySize=auto;html=1;exitX=1;exitY=0.5;exitDx=0;exitDy=0;endArrow=none;endFill=0;" edge="1" parent="1" source="LvgNUa0SAJGG8aNR1_Jv-2">
          <mxGeometry relative="1" as="geometry">
            <mxPoint x="1050" y="500" as="targetPoint" />
          </mxGeometry>
        </mxCell>
        <mxCell id="LvgNUa0SAJGG8aNR1_Jv-2" value="Reg B" style="rounded=0;whiteSpace=wrap;html=1;fontStyle=1" vertex="1" parent="1">
          <mxGeometry x="890" y="470" width="120" height="60" as="geometry" />
        </mxCell>
        <mxCell id="LvgNUa0SAJGG8aNR1_Jv-27" style="edgeStyle=orthogonalEdgeStyle;rounded=0;orthogonalLoop=1;jettySize=auto;html=1;exitX=0.5;exitY=1;exitDx=0;exitDy=0;entryX=0.25;entryY=0;entryDx=0;entryDy=0;endArrow=none;endFill=0;" edge="1" parent="1" source="LvgNUa0SAJGG8aNR1_Jv-3" target="LvgNUa0SAJGG8aNR1_Jv-21">
          <mxGeometry relative="1" as="geometry" />
        </mxCell>
        <mxCell id="LvgNUa0SAJGG8aNR1_Jv-3" value="Reg A" style="rounded=0;whiteSpace=wrap;html=1;fontStyle=1" vertex="1" parent="1">
          <mxGeometry x="710" y="470" width="120" height="60" as="geometry" />
        </mxCell>
        <mxCell id="LvgNUa0SAJGG8aNR1_Jv-50" style="edgeStyle=orthogonalEdgeStyle;rounded=0;orthogonalLoop=1;jettySize=auto;html=1;exitX=0;exitY=0.5;exitDx=0;exitDy=0;endArrow=none;endFill=0;" edge="1" parent="1" source="LvgNUa0SAJGG8aNR1_Jv-4">
          <mxGeometry relative="1" as="geometry">
            <mxPoint x="280" y="510" as="targetPoint" />
          </mxGeometry>
        </mxCell>
        <mxCell id="LvgNUa0SAJGG8aNR1_Jv-61" style="edgeStyle=orthogonalEdgeStyle;rounded=0;orthogonalLoop=1;jettySize=auto;html=1;exitX=0.25;exitY=0;exitDx=0;exitDy=0;entryX=1;entryY=0.75;entryDx=0;entryDy=0;endArrow=none;endFill=0;" edge="1" parent="1" source="LvgNUa0SAJGG8aNR1_Jv-4" target="LvgNUa0SAJGG8aNR1_Jv-16">
          <mxGeometry relative="1" as="geometry">
            <Array as="points">
              <mxPoint x="730" y="780" />
              <mxPoint x="730" y="723" />
            </Array>
          </mxGeometry>
        </mxCell>
        <mxCell id="LvgNUa0SAJGG8aNR1_Jv-4" value="Acc" style="rounded=0;whiteSpace=wrap;html=1;fontStyle=1" vertex="1" parent="1">
          <mxGeometry x="710" y="780" width="120" height="60" as="geometry" />
        </mxCell>
        <mxCell id="LvgNUa0SAJGG8aNR1_Jv-6" style="edgeStyle=orthogonalEdgeStyle;rounded=0;orthogonalLoop=1;jettySize=auto;html=1;exitX=0.5;exitY=1;exitDx=0;exitDy=0;entryX=0.5;entryY=0;entryDx=0;entryDy=0;endArrow=none;endFill=0;" edge="1" parent="1" source="LvgNUa0SAJGG8aNR1_Jv-5" target="LvgNUa0SAJGG8aNR1_Jv-4">
          <mxGeometry relative="1" as="geometry" />
        </mxCell>
        <mxCell id="LvgNUa0SAJGG8aNR1_Jv-24" style="edgeStyle=orthogonalEdgeStyle;rounded=0;orthogonalLoop=1;jettySize=auto;html=1;exitX=0.5;exitY=0;exitDx=0;exitDy=0;entryX=1;entryY=0.25;entryDx=0;entryDy=0;strokeColor=none;" edge="1" parent="1" source="LvgNUa0SAJGG8aNR1_Jv-5" target="LvgNUa0SAJGG8aNR1_Jv-16">
          <mxGeometry relative="1" as="geometry">
            <Array as="points">
              <mxPoint x="770" y="620" />
              <mxPoint x="620" y="620" />
            </Array>
          </mxGeometry>
        </mxCell>
        <mxCell id="LvgNUa0SAJGG8aNR1_Jv-71" style="edgeStyle=orthogonalEdgeStyle;rounded=0;orthogonalLoop=1;jettySize=auto;html=1;exitX=0;exitY=0.25;exitDx=0;exitDy=0;entryX=1.031;entryY=0.429;entryDx=0;entryDy=0;entryPerimeter=0;endArrow=none;endFill=0;" edge="1" parent="1" source="LvgNUa0SAJGG8aNR1_Jv-5" target="LvgNUa0SAJGG8aNR1_Jv-16">
          <mxGeometry relative="1" as="geometry" />
        </mxCell>
        <mxCell id="LvgNUa0SAJGG8aNR1_Jv-5" value="ALU" style="rounded=0;whiteSpace=wrap;html=1;fontStyle=1" vertex="1" parent="1">
          <mxGeometry x="710" y="640" width="120" height="60" as="geometry" />
        </mxCell>
        <mxCell id="LvgNUa0SAJGG8aNR1_Jv-7" value="Out" style="text;html=1;strokeColor=none;fillColor=none;align=center;verticalAlign=middle;whiteSpace=wrap;rounded=0;" vertex="1" parent="1">
          <mxGeometry x="780" y="720" width="60" height="30" as="geometry" />
        </mxCell>
        <mxCell id="LvgNUa0SAJGG8aNR1_Jv-8" value="" style="endArrow=none;html=1;rounded=0;exitX=0;exitY=0.5;exitDx=0;exitDy=0;" edge="1" parent="1" source="LvgNUa0SAJGG8aNR1_Jv-7">
          <mxGeometry width="50" height="50" relative="1" as="geometry">
            <mxPoint x="760" y="650" as="sourcePoint" />
            <mxPoint x="760" y="750" as="targetPoint" />
          </mxGeometry>
        </mxCell>
        <mxCell id="LvgNUa0SAJGG8aNR1_Jv-9" value="16" style="text;html=1;strokeColor=none;fillColor=none;align=center;verticalAlign=middle;whiteSpace=wrap;rounded=0;" vertex="1" parent="1">
          <mxGeometry x="720" y="720" width="60" height="30" as="geometry" />
        </mxCell>
        <mxCell id="LvgNUa0SAJGG8aNR1_Jv-10" value="" style="endArrow=none;html=1;rounded=0;entryX=0;entryY=0.5;entryDx=0;entryDy=0;exitX=1;exitY=0.5;exitDx=0;exitDy=0;" edge="1" parent="1" source="LvgNUa0SAJGG8aNR1_Jv-16" target="LvgNUa0SAJGG8aNR1_Jv-5">
          <mxGeometry width="50" height="50" relative="1" as="geometry">
            <mxPoint x="660" y="670" as="sourcePoint" />
            <mxPoint x="810" y="600" as="targetPoint" />
          </mxGeometry>
        </mxCell>
        <mxCell id="LvgNUa0SAJGG8aNR1_Jv-12" value="" style="endArrow=none;html=1;rounded=0;" edge="1" parent="1">
          <mxGeometry width="50" height="50" relative="1" as="geometry">
            <mxPoint x="680" y="680" as="sourcePoint" />
            <mxPoint x="690" y="660" as="targetPoint" />
          </mxGeometry>
        </mxCell>
        <mxCell id="LvgNUa0SAJGG8aNR1_Jv-13" value="3" style="text;html=1;strokeColor=none;fillColor=none;align=center;verticalAlign=middle;whiteSpace=wrap;rounded=0;" vertex="1" parent="1">
          <mxGeometry x="670" y="670" width="40" height="20" as="geometry" />
        </mxCell>
        <mxCell id="LvgNUa0SAJGG8aNR1_Jv-14" value="ALU OP" style="text;html=1;strokeColor=none;fillColor=none;align=center;verticalAlign=middle;whiteSpace=wrap;rounded=0;" vertex="1" parent="1">
          <mxGeometry x="650" y="680" width="60" height="30" as="geometry" />
        </mxCell>
        <mxCell id="LvgNUa0SAJGG8aNR1_Jv-31" style="edgeStyle=orthogonalEdgeStyle;rounded=0;orthogonalLoop=1;jettySize=auto;html=1;exitX=1;exitY=0.25;exitDx=0;exitDy=0;entryX=0;entryY=0.5;entryDx=0;entryDy=0;endArrow=none;endFill=0;" edge="1" parent="1" source="LvgNUa0SAJGG8aNR1_Jv-16" target="LvgNUa0SAJGG8aNR1_Jv-21">
          <mxGeometry relative="1" as="geometry">
            <Array as="points">
              <mxPoint x="610" y="610" />
            </Array>
          </mxGeometry>
        </mxCell>
        <mxCell id="LvgNUa0SAJGG8aNR1_Jv-65" style="edgeStyle=orthogonalEdgeStyle;rounded=0;orthogonalLoop=1;jettySize=auto;html=1;exitX=0.25;exitY=0;exitDx=0;exitDy=0;entryX=1;entryY=0.75;entryDx=0;entryDy=0;endArrow=none;endFill=0;" edge="1" parent="1" source="LvgNUa0SAJGG8aNR1_Jv-16" target="LvgNUa0SAJGG8aNR1_Jv-1">
          <mxGeometry relative="1" as="geometry" />
        </mxCell>
        <mxCell id="LvgNUa0SAJGG8aNR1_Jv-67" style="edgeStyle=orthogonalEdgeStyle;rounded=0;orthogonalLoop=1;jettySize=auto;html=1;exitX=0.75;exitY=0;exitDx=0;exitDy=0;endArrow=none;endFill=0;" edge="1" parent="1" source="LvgNUa0SAJGG8aNR1_Jv-16">
          <mxGeometry relative="1" as="geometry">
            <mxPoint x="630" y="540" as="targetPoint" />
            <Array as="points">
              <mxPoint x="593" y="540" />
            </Array>
          </mxGeometry>
        </mxCell>
        <mxCell id="LvgNUa0SAJGG8aNR1_Jv-91" style="edgeStyle=orthogonalEdgeStyle;rounded=0;orthogonalLoop=1;jettySize=auto;html=1;exitX=0;exitY=0.75;exitDx=0;exitDy=0;endArrow=none;endFill=0;" edge="1" parent="1" source="LvgNUa0SAJGG8aNR1_Jv-16">
          <mxGeometry relative="1" as="geometry">
            <mxPoint x="500.0000000000002" y="780" as="targetPoint" />
          </mxGeometry>
        </mxCell>
        <mxCell id="LvgNUa0SAJGG8aNR1_Jv-98" style="edgeStyle=orthogonalEdgeStyle;rounded=0;orthogonalLoop=1;jettySize=auto;html=1;exitX=0.75;exitY=1;exitDx=0;exitDy=0;endArrow=none;endFill=0;entryX=0;entryY=0.25;entryDx=0;entryDy=0;" edge="1" parent="1" source="LvgNUa0SAJGG8aNR1_Jv-16" target="LvgNUa0SAJGG8aNR1_Jv-4">
          <mxGeometry relative="1" as="geometry">
            <mxPoint x="640" y="795" as="targetPoint" />
            <Array as="points">
              <mxPoint x="593" y="795" />
            </Array>
          </mxGeometry>
        </mxCell>
        <mxCell id="LvgNUa0SAJGG8aNR1_Jv-16" value="Instruction Decoder" style="whiteSpace=wrap;html=1;" vertex="1" parent="1">
          <mxGeometry x="540" y="565" width="70" height="210" as="geometry" />
        </mxCell>
        <mxCell id="LvgNUa0SAJGG8aNR1_Jv-20" value="ALU EN" style="text;html=1;strokeColor=none;fillColor=none;align=center;verticalAlign=middle;whiteSpace=wrap;rounded=0;" vertex="1" parent="1">
          <mxGeometry x="770" y="610" width="60" height="30" as="geometry" />
        </mxCell>
        <mxCell id="LvgNUa0SAJGG8aNR1_Jv-21" value="2:1 MUX" style="rounded=0;whiteSpace=wrap;html=1;" vertex="1" parent="1">
          <mxGeometry x="920" y="585" width="120" height="50" as="geometry" />
        </mxCell>
        <mxCell id="LvgNUa0SAJGG8aNR1_Jv-22" value="" style="endArrow=none;html=1;rounded=0;exitX=1;exitY=0.5;exitDx=0;exitDy=0;" edge="1" parent="1" source="LvgNUa0SAJGG8aNR1_Jv-5" target="LvgNUa0SAJGG8aNR1_Jv-21">
          <mxGeometry width="50" height="50" relative="1" as="geometry">
            <mxPoint x="920" y="660" as="sourcePoint" />
            <mxPoint x="750" y="630" as="targetPoint" />
            <Array as="points">
              <mxPoint x="980" y="670" />
            </Array>
          </mxGeometry>
        </mxCell>
        <mxCell id="LvgNUa0SAJGG8aNR1_Jv-23" value="" style="endArrow=none;html=1;rounded=0;" edge="1" parent="1">
          <mxGeometry width="50" height="50" relative="1" as="geometry">
            <mxPoint x="910" y="680" as="sourcePoint" />
            <mxPoint x="920" y="660" as="targetPoint" />
          </mxGeometry>
        </mxCell>
        <mxCell id="LvgNUa0SAJGG8aNR1_Jv-26" value="16" style="text;html=1;strokeColor=none;fillColor=none;align=center;verticalAlign=middle;whiteSpace=wrap;rounded=0;" vertex="1" parent="1">
          <mxGeometry x="910" y="670" width="30" height="20" as="geometry" />
        </mxCell>
        <mxCell id="LvgNUa0SAJGG8aNR1_Jv-32" value="REG_SELECT" style="text;html=1;strokeColor=none;fillColor=none;align=center;verticalAlign=middle;whiteSpace=wrap;rounded=0;" vertex="1" parent="1">
          <mxGeometry x="660" y="580" width="110" height="30" as="geometry" />
        </mxCell>
        <mxCell id="LvgNUa0SAJGG8aNR1_Jv-33" value="" style="endArrow=none;html=1;rounded=0;" edge="1" parent="1">
          <mxGeometry width="50" height="50" relative="1" as="geometry">
            <mxPoint x="810" y="570" as="sourcePoint" />
            <mxPoint x="820" y="550" as="targetPoint" />
          </mxGeometry>
        </mxCell>
        <mxCell id="LvgNUa0SAJGG8aNR1_Jv-34" value="16" style="text;html=1;strokeColor=none;fillColor=none;align=center;verticalAlign=middle;whiteSpace=wrap;rounded=0;" vertex="1" parent="1">
          <mxGeometry x="800" y="555" width="60" height="30" as="geometry" />
        </mxCell>
        <mxCell id="LvgNUa0SAJGG8aNR1_Jv-35" value="" style="endArrow=none;html=1;rounded=0;" edge="1" parent="1">
          <mxGeometry width="50" height="50" relative="1" as="geometry">
            <mxPoint x="1000" y="570" as="sourcePoint" />
            <mxPoint x="1020" y="560" as="targetPoint" />
          </mxGeometry>
        </mxCell>
        <mxCell id="LvgNUa0SAJGG8aNR1_Jv-36" value="16" style="text;html=1;strokeColor=none;fillColor=none;align=center;verticalAlign=middle;whiteSpace=wrap;rounded=0;" vertex="1" parent="1">
          <mxGeometry x="1000" y="555" width="60" height="30" as="geometry" />
        </mxCell>
        <mxCell id="LvgNUa0SAJGG8aNR1_Jv-45" style="edgeStyle=orthogonalEdgeStyle;rounded=0;orthogonalLoop=1;jettySize=auto;html=1;exitX=1;exitY=0.5;exitDx=0;exitDy=0;entryX=0;entryY=0.5;entryDx=0;entryDy=0;endArrow=none;endFill=0;" edge="1" parent="1" source="LvgNUa0SAJGG8aNR1_Jv-37" target="LvgNUa0SAJGG8aNR1_Jv-16">
          <mxGeometry relative="1" as="geometry" />
        </mxCell>
        <mxCell id="LvgNUa0SAJGG8aNR1_Jv-37" value="Program Memory" style="rounded=0;whiteSpace=wrap;html=1;" vertex="1" parent="1">
          <mxGeometry x="370" y="580" width="100" height="180" as="geometry" />
        </mxCell>
        <mxCell id="LvgNUa0SAJGG8aNR1_Jv-39" value="" style="endArrow=none;html=1;rounded=0;exitX=0.75;exitY=1;exitDx=0;exitDy=0;" edge="1" parent="1" source="LvgNUa0SAJGG8aNR1_Jv-5">
          <mxGeometry width="50" height="50" relative="1" as="geometry">
            <mxPoint x="700" y="680" as="sourcePoint" />
            <mxPoint x="920" y="720" as="targetPoint" />
            <Array as="points">
              <mxPoint x="800" y="710" />
              <mxPoint x="800" y="720" />
            </Array>
          </mxGeometry>
        </mxCell>
        <mxCell id="LvgNUa0SAJGG8aNR1_Jv-41" value="FLAG" style="text;html=1;strokeColor=none;fillColor=none;align=center;verticalAlign=middle;whiteSpace=wrap;rounded=0;" vertex="1" parent="1">
          <mxGeometry x="910" y="710" width="60" height="30" as="geometry" />
        </mxCell>
        <mxCell id="LvgNUa0SAJGG8aNR1_Jv-44" value="16" style="text;html=1;strokeColor=none;fillColor=none;align=center;verticalAlign=middle;whiteSpace=wrap;rounded=0;" vertex="1" parent="1">
          <mxGeometry x="410" y="540" width="60" height="30" as="geometry" />
        </mxCell>
        <mxCell id="LvgNUa0SAJGG8aNR1_Jv-46" value="" style="endArrow=none;html=1;rounded=0;" edge="1" parent="1">
          <mxGeometry width="50" height="50" relative="1" as="geometry">
            <mxPoint x="430" y="570" as="sourcePoint" />
            <mxPoint x="410" y="560" as="targetPoint" />
          </mxGeometry>
        </mxCell>
        <mxCell id="LvgNUa0SAJGG8aNR1_Jv-47" value="" style="endArrow=none;html=1;rounded=0;" edge="1" parent="1">
          <mxGeometry width="50" height="50" relative="1" as="geometry">
            <mxPoint x="490" y="680" as="sourcePoint" />
            <mxPoint x="510" y="660" as="targetPoint" />
          </mxGeometry>
        </mxCell>
        <mxCell id="LvgNUa0SAJGG8aNR1_Jv-48" value="16" style="text;html=1;strokeColor=none;fillColor=none;align=center;verticalAlign=middle;whiteSpace=wrap;rounded=0;" vertex="1" parent="1">
          <mxGeometry x="470" y="635" width="60" height="30" as="geometry" />
        </mxCell>
        <mxCell id="LvgNUa0SAJGG8aNR1_Jv-49" value="Program Word" style="text;html=1;strokeColor=none;fillColor=none;align=center;verticalAlign=middle;whiteSpace=wrap;rounded=0;" vertex="1" parent="1">
          <mxGeometry x="470" y="680" width="60" height="30" as="geometry" />
        </mxCell>
        <mxCell id="LvgNUa0SAJGG8aNR1_Jv-53" value="" style="endArrow=none;html=1;rounded=0;" edge="1" parent="1">
          <mxGeometry width="50" height="50" relative="1" as="geometry">
            <mxPoint x="520" y="820" as="sourcePoint" />
            <mxPoint x="540" y="800" as="targetPoint" />
          </mxGeometry>
        </mxCell>
        <mxCell id="LvgNUa0SAJGG8aNR1_Jv-54" value="ACC_OUT" style="text;html=1;strokeColor=none;fillColor=none;align=center;verticalAlign=middle;whiteSpace=wrap;rounded=0;" vertex="1" parent="1">
          <mxGeometry x="590" y="810" width="60" height="30" as="geometry" />
        </mxCell>
        <mxCell id="LvgNUa0SAJGG8aNR1_Jv-55" value="&lt;div&gt;16&lt;/div&gt;" style="text;html=1;strokeColor=none;fillColor=none;align=center;verticalAlign=middle;whiteSpace=wrap;rounded=0;" vertex="1" parent="1">
          <mxGeometry x="510" y="810" width="60" height="30" as="geometry" />
        </mxCell>
        <mxCell id="LvgNUa0SAJGG8aNR1_Jv-56" value="" style="endArrow=none;html=1;rounded=0;" edge="1" parent="1">
          <mxGeometry width="50" height="50" relative="1" as="geometry">
            <mxPoint x="280" y="510" as="sourcePoint" />
            <mxPoint x="280" y="420" as="targetPoint" />
          </mxGeometry>
        </mxCell>
        <mxCell id="LvgNUa0SAJGG8aNR1_Jv-57" value="" style="endArrow=none;html=1;rounded=0;" edge="1" parent="1">
          <mxGeometry width="50" height="50" relative="1" as="geometry">
            <mxPoint x="280" y="420" as="sourcePoint" />
            <mxPoint x="950" y="420" as="targetPoint" />
          </mxGeometry>
        </mxCell>
        <mxCell id="LvgNUa0SAJGG8aNR1_Jv-58" value="" style="endArrow=none;html=1;rounded=0;exitX=0.5;exitY=0;exitDx=0;exitDy=0;" edge="1" parent="1" source="LvgNUa0SAJGG8aNR1_Jv-3">
          <mxGeometry width="50" height="50" relative="1" as="geometry">
            <mxPoint x="745" y="470" as="sourcePoint" />
            <mxPoint x="770" y="420" as="targetPoint" />
          </mxGeometry>
        </mxCell>
        <mxCell id="LvgNUa0SAJGG8aNR1_Jv-59" value="" style="endArrow=none;html=1;rounded=0;exitX=0.5;exitY=0;exitDx=0;exitDy=0;" edge="1" parent="1" source="LvgNUa0SAJGG8aNR1_Jv-2">
          <mxGeometry width="50" height="50" relative="1" as="geometry">
            <mxPoint x="910" y="470" as="sourcePoint" />
            <mxPoint x="950" y="420" as="targetPoint" />
          </mxGeometry>
        </mxCell>
        <mxCell id="LvgNUa0SAJGG8aNR1_Jv-64" value="CLEAR_ACC" style="text;html=1;strokeColor=none;fillColor=none;align=center;verticalAlign=middle;whiteSpace=wrap;rounded=0;" vertex="1" parent="1">
          <mxGeometry x="640" y="720" width="60" height="30" as="geometry" />
        </mxCell>
        <mxCell id="LvgNUa0SAJGG8aNR1_Jv-68" value="FLAG" style="text;html=1;strokeColor=none;fillColor=none;align=center;verticalAlign=middle;whiteSpace=wrap;rounded=0;" vertex="1" parent="1">
          <mxGeometry x="590" y="510" width="60" height="30" as="geometry" />
        </mxCell>
        <mxCell id="LvgNUa0SAJGG8aNR1_Jv-69" value="JUMP_EN" style="text;html=1;strokeColor=none;fillColor=none;align=center;verticalAlign=middle;whiteSpace=wrap;rounded=0;" vertex="1" parent="1">
          <mxGeometry x="500" y="495" width="60" height="30" as="geometry" />
        </mxCell>
        <mxCell id="LvgNUa0SAJGG8aNR1_Jv-72" value="" style="endArrow=none;html=1;rounded=0;" edge="1" parent="1">
          <mxGeometry width="50" height="50" relative="1" as="geometry">
            <mxPoint x="640" y="660" as="sourcePoint" />
            <mxPoint x="650" y="650" as="targetPoint" />
          </mxGeometry>
        </mxCell>
        <mxCell id="LvgNUa0SAJGG8aNR1_Jv-73" value="8" style="text;html=1;strokeColor=none;fillColor=none;align=center;verticalAlign=middle;whiteSpace=wrap;rounded=0;" vertex="1" parent="1">
          <mxGeometry x="675" y="630" width="30" height="20" as="geometry" />
        </mxCell>
        <mxCell id="LvgNUa0SAJGG8aNR1_Jv-75" value="IMM" style="text;html=1;strokeColor=none;fillColor=none;align=center;verticalAlign=middle;whiteSpace=wrap;rounded=0;" vertex="1" parent="1">
          <mxGeometry x="610" y="625" width="60" height="30" as="geometry" />
        </mxCell>
        <mxCell id="LvgNUa0SAJGG8aNR1_Jv-81" style="edgeStyle=orthogonalEdgeStyle;rounded=0;orthogonalLoop=1;jettySize=auto;html=1;exitX=0;exitY=0.75;exitDx=0;exitDy=0;endArrow=none;endFill=0;" edge="1" parent="1" source="LvgNUa0SAJGG8aNR1_Jv-76">
          <mxGeometry relative="1" as="geometry">
            <mxPoint x="980" y="670" as="targetPoint" />
            <Array as="points">
              <mxPoint x="1160" y="670" />
            </Array>
          </mxGeometry>
        </mxCell>
        <mxCell id="LvgNUa0SAJGG8aNR1_Jv-93" style="edgeStyle=orthogonalEdgeStyle;rounded=0;orthogonalLoop=1;jettySize=auto;html=1;exitX=0.5;exitY=1;exitDx=0;exitDy=0;entryX=1;entryY=0.5;entryDx=0;entryDy=0;endArrow=none;endFill=0;" edge="1" parent="1" source="LvgNUa0SAJGG8aNR1_Jv-76" target="LvgNUa0SAJGG8aNR1_Jv-4">
          <mxGeometry relative="1" as="geometry" />
        </mxCell>
        <mxCell id="LvgNUa0SAJGG8aNR1_Jv-102" style="edgeStyle=orthogonalEdgeStyle;rounded=0;orthogonalLoop=1;jettySize=auto;html=1;exitX=0;exitY=0.5;exitDx=0;exitDy=0;endArrow=none;endFill=0;" edge="1" parent="1" source="LvgNUa0SAJGG8aNR1_Jv-76">
          <mxGeometry relative="1" as="geometry">
            <mxPoint x="1100" y="610" as="targetPoint" />
          </mxGeometry>
        </mxCell>
        <mxCell id="LvgNUa0SAJGG8aNR1_Jv-76" value="RAM" style="whiteSpace=wrap;html=1;aspect=fixed;" vertex="1" parent="1">
          <mxGeometry x="1160" y="520" width="180" height="180" as="geometry" />
        </mxCell>
        <mxCell id="LvgNUa0SAJGG8aNR1_Jv-82" value="Address" style="text;html=1;strokeColor=none;fillColor=none;align=center;verticalAlign=middle;whiteSpace=wrap;rounded=0;" vertex="1" parent="1">
          <mxGeometry x="1080" y="665" width="60" height="30" as="geometry" />
        </mxCell>
        <mxCell id="LvgNUa0SAJGG8aNR1_Jv-83" value="" style="endArrow=none;html=1;rounded=0;" edge="1" parent="1">
          <mxGeometry width="50" height="50" relative="1" as="geometry">
            <mxPoint x="950" y="420" as="sourcePoint" />
            <mxPoint x="1250" y="420" as="targetPoint" />
          </mxGeometry>
        </mxCell>
        <mxCell id="LvgNUa0SAJGG8aNR1_Jv-84" value="" style="endArrow=none;html=1;rounded=0;exitX=0.5;exitY=0;exitDx=0;exitDy=0;" edge="1" parent="1" source="LvgNUa0SAJGG8aNR1_Jv-76">
          <mxGeometry width="50" height="50" relative="1" as="geometry">
            <mxPoint x="700" y="680" as="sourcePoint" />
            <mxPoint x="1250" y="420" as="targetPoint" />
          </mxGeometry>
        </mxCell>
        <mxCell id="LvgNUa0SAJGG8aNR1_Jv-85" value="data_in" style="text;html=1;strokeColor=none;fillColor=none;align=center;verticalAlign=middle;whiteSpace=wrap;rounded=0;" vertex="1" parent="1">
          <mxGeometry x="1250" y="465" width="60" height="30" as="geometry" />
        </mxCell>
        <mxCell id="LvgNUa0SAJGG8aNR1_Jv-86" value="" style="endArrow=none;html=1;rounded=0;entryX=0;entryY=0.5;entryDx=0;entryDy=0;" edge="1" parent="1" target="LvgNUa0SAJGG8aNR1_Jv-3">
          <mxGeometry width="50" height="50" relative="1" as="geometry">
            <mxPoint x="670" y="500" as="sourcePoint" />
            <mxPoint x="710" y="430" as="targetPoint" />
          </mxGeometry>
        </mxCell>
        <mxCell id="LvgNUa0SAJGG8aNR1_Jv-89" value="A_TRAN_EN" style="text;html=1;strokeColor=none;fillColor=none;align=center;verticalAlign=middle;whiteSpace=wrap;rounded=0;" vertex="1" parent="1">
          <mxGeometry x="640" y="470" width="60" height="30" as="geometry" />
        </mxCell>
        <mxCell id="LvgNUa0SAJGG8aNR1_Jv-90" value="B_TRAN_EN" style="text;html=1;strokeColor=none;fillColor=none;align=center;verticalAlign=middle;whiteSpace=wrap;rounded=0;" vertex="1" parent="1">
          <mxGeometry x="1030" y="470" width="60" height="30" as="geometry" />
        </mxCell>
        <mxCell id="LvgNUa0SAJGG8aNR1_Jv-92" value="A/B_TRAN_EN" style="text;html=1;strokeColor=none;fillColor=none;align=center;verticalAlign=middle;whiteSpace=wrap;rounded=0;" vertex="1" parent="1">
          <mxGeometry x="470" y="775" width="60" height="30" as="geometry" />
        </mxCell>
        <mxCell id="LvgNUa0SAJGG8aNR1_Jv-94" value="data_out" style="text;html=1;strokeColor=none;fillColor=none;align=center;verticalAlign=middle;whiteSpace=wrap;rounded=0;" vertex="1" parent="1">
          <mxGeometry x="1250" y="730" width="60" height="30" as="geometry" />
        </mxCell>
        <mxCell id="LvgNUa0SAJGG8aNR1_Jv-99" value="ACC_D_A" style="text;html=1;strokeColor=none;fillColor=none;align=center;verticalAlign=middle;whiteSpace=wrap;rounded=0;" vertex="1" parent="1">
          <mxGeometry x="630" y="770" width="60" height="30" as="geometry" />
        </mxCell>
        <mxCell id="LvgNUa0SAJGG8aNR1_Jv-103" value="R/W" style="text;html=1;strokeColor=none;fillColor=none;align=center;verticalAlign=middle;whiteSpace=wrap;rounded=0;" vertex="1" parent="1">
          <mxGeometry x="1080" y="580" width="60" height="30" as="geometry" />
        </mxCell>
      </root>
    </mxGraphModel>
  </diagram>
</mxfile>
